<?xml version="1.0" encoding="UTF-8"?>
<svg id="svg" xmlns="http://www.w3.org/2000/svg" xmlns:svg="http://www.w3.org/2000/svg" xmlns:sodipodi="http://sodipodi.sourceforge.net/DTD/sodipodi-0.dtd" xmlns:inkscape="http://www.inkscape.org/namespaces/inkscape" version="1.1" viewBox="0 0 280 280">
  <defs>
    <style>
      .cls-1 {
        fill: #042c8c;
        fill-rule: evenodd;
      }

      .cls-1, .cls-2 {
        stroke-width: 0px;
      }

      .cls-2 {
        fill: #fff;
      }
    </style>
  </defs>
  <sodipodi:namedview id="namedview9" bordercolor="#666666" borderopacity="1.0" inkscape:current-layer="svg" inkscape:cx="139.1198" inkscape:cy="184.59658" inkscape:pagecheckerboard="0" inkscape:pageopacity="0.0" inkscape:pageshadow="2" inkscape:window-height="1002" inkscape:window-maximized="1" inkscape:window-width="1920" inkscape:window-x="-8" inkscape:window-y="-8" inkscape:zoom="2.045" pagecolor="#ffffff" showgrid="false"/>
  <circle class="cls-2" cx="140" cy="140" r="140"/>
  <g id="svgg">
    <path id="path4" class="cls-1" d="M133.1.2c-35.9,1.8-68.1,16.3-93.2,42C8.7,74-5.4,119.1,1.9,162.9c13.5,80.6,92.6,132.6,171.9,113,53.9-13.4,95.2-58,104.3-112.7C292.7,74.8,222.3-4.3,133.1.2M150.1,4.9c77.7,5.6,135,76.9,123.9,154.3-8.8,61.8-59.3,109.8-121.4,115.6C64.4,283.1-8.1,205,6.5,117.6,18,48.7,80.3-.2,150.1,4.9M133.5,13.6c-.1,0-.7.2-1.2.2-5.7.9-5.4,12.1.3,13.3,3.5.7,6.4-1,7.1-4.2l.2-.8h-1.4c-1.4,0-1.4,0-1.8.9-1.5,4-6.2.7-5.5-3.8.5-3.2,4.5-4,5.5-1.1.2.7,3.1,0,2.9-.7-.5-2.3-4.1-4.4-6.1-3.7M148.5,14.6c-.3,1.2-1.3,12.1-1.1,12.3,0,0,.7.2,1.4.3h1.3c0,.1.2-1.4.2-1.4.3-3,.4-3.2.9-3,3.8,1.2,7-.7,7-4.1,0-2.7-1.2-3.7-4.9-4.1-1.3-.1-2.9-.3-3.5-.4-.9-.1-1.1,0-1.2.4M185.1,15c-.3.3-.5.6-.4.7.2.3,1.1.5,1.3.3.2-.4.9-.3,1,.2,0,.3-.2.7-.8,1.2-.5.5-.9,1-.9,1.2,0,.6,1,.8,1.4.4.1-.2.6-.5,1-.7,1.5-.7,1.5-2.7,0-3.4-1.2-.6-2.1-.5-2.7.1M117,15.7c-5.8,2.7-3.9,12.8,2.4,13,.8,0,1.1,0,.7.1-.7.1-.7.1-.5,1.2.2,1.3.1,1.3,1.5,1.1l1.2-.2-.2-1.2c-.2-1.2-.2-1.2.7-1.5,4.7-1.7,4.4-10.6-.4-12.6-1.3-.5-4.1-.5-5.4,0M161.4,17.5c-.2,1.1-.9,3.9-1.4,6.3-1.1,4.9-1.1,4.6.2,4.8.5,0,1.1.2,1.3.3.3,0,.5-.5,1-2.7.6-2.6.6-2.8,1.1-2.7.3,0,1.2.3,2.1.4,2.1.4,2,.3,1.4,3.3-.6,2.9-.6,2.9,1.1,3.2,1.3.2,1.1.7,2.5-5.7.7-3.1,1.3-5.9,1.4-6.2.1-.5,0-.6-1-.8-1.8-.5-1.8-.5-2.3,1.9-.3,1.2-.5,2.3-.5,2.3-.1.1-4-.8-4.3-1-.1-.1,0-1.1.2-2.2.5-2.6.5-2.6-.6-2.8-.5,0-1.2-.2-1.4-.3-.3-.1-.5.3-.8,1.8M154.6,17.5c1.7,1.1.3,3-2,2.9-1.9,0-1.8,0-1.6-1.9l.2-1.7,1.4.2c.8,0,1.7.3,2,.5M180.8,17.6c-.7.4-1.3.9-1.3,1,0,.4,1.9.9,2.5.6.8-.4,1-.3,1.2.4.1.7,1.8,1.7,2.2,1.4.5-.5-.9-3.4-1.8-3.8-1.3-.5-1.1-.5-2.7.4M107.6,17.9c-.5.2-1,.4-1.1.4s.2,1,.6,2.2.5,2.2.4,2.3c-.2.2-3.6,1.2-4,1.2s-.5-.9-.8-2.1c-.3-1.2-.6-2.2-.7-2.3-.2-.4-2.9.6-2.8,1,0,.2.9,3,1.8,6.2.9,3.2,1.7,5.9,1.7,5.9,0,0,.6-.1,1.4-.3,1.6-.5,1.5-.4.7-3.3-.8-2.7-.8-2.7,1.6-3.3,2.3-.6,2.1-.8,3,2.2.8,2.9.6,2.7,2.1,2.3,1.6-.4,1.6-.2-.3-6.9-1.9-6.4-1.8-6.3-3.5-5.7M121.6,18.4c.8.5,1.4,2.1,1.6,3.7.4,4.9-5.2,5.7-6.4.9-1-3.8,1.8-6.5,4.8-4.6M176.8,20.5c-4,1.9-5.3,8.8-2.2,11.5,5,4.4,12.4-.5,11-7.3-.7-3.4-5.5-5.7-8.7-4.2M181.5,23.3c2.8,1.9.8,7.7-2.6,7.7s-3.8-2.1-2.7-5.2c1-2.7,3.4-3.8,5.3-2.5M85.7,25.7c-4.8,1.4-6,7.3-2.4,11.5,2.6,3,7.7,2.7,9.3-.6.5-1,.5-1,1-.5.4.5,2.2,0,2.2-.5,0-.3-3-6.4-3.2-6.4s-4.7,2.3-4.9,2.4c-.1,0,.9,2.2,1.1,2.2s.7-.3,1.4-.6l1.3-.6v.8c0,2.4-2.7,4-4.7,2.7-4.2-2.6-2.5-9.9,1.8-7.6l1,.5,1.2-.6c2.7-1.4-1.5-3.6-5-2.6M194,27.2c-.6,1.2-.7,1.1,1.4,2.2.7.4,1.3.7,1.3.7,0,0-1,2.1-2.3,4.5-1.3,2.5-2.4,4.6-2.4,4.7,0,.2,2.5,1.5,2.6,1.3,0,0,1.2-2.1,2.5-4.6l2.4-4.5,1.6.9q1.8,1,2.5-.3c.6-1.1.9-.9-4.3-3.7-5.1-2.7-4.5-2.6-5.2-1.3M75,31.7c-1.3.9-1.4.5.9,4,1.1,1.7,2,3.2,2.1,3.4,0,.2-1.7-.6-4-1.8l-4.2-2.2-1.2.8c-1.5,1-1.7.4,2.4,6.7,3.2,5,3.3,5.1,3.9,4.8.3-.2.8-.5,1.1-.7.8-.5.8-.3-1.7-4.2l-2.2-3.5,4.3,2.2c4.9,2.5,4.5,2.4,5.8,1.6,1.3-.9,1.5-.4-2.2-6.1-4-6.3-3.5-5.8-4.8-4.9M202.6,37.9l-3.6,5.4.6.4c.3.2.9.6,1.2.8l.7.4,1.6-2.3c.9-1.3,1.6-2.3,1.7-2.3s3.1,2,3.7,2.5c0,0-.6,1.1-1.5,2.3s-1.6,2.3-1.6,2.4c0,.3,2.3,1.7,2.5,1.5.4-.4,7.1-10.4,7.1-10.6,0-.3-2.4-1.7-2.5-1.5-.8,1.4-2.5,3.6-2.6,3.6,0,0-1-.5-2-1.2l-1.8-1.2,1.3-1.9c.7-1,1.3-2,1.3-2.1,0-.2-2.1-1.7-2.3-1.7,0,0-1.7,2.4-3.7,5.4M63.2,39.7c-1.2,1.1-1.4.6,2,4.8,3.3,4,3.5,4.5,2.2,5.8-1.6,1.6-2.4,1.1-6-3.4-2.9-3.6-2.6-3.5-4-2.4-1.3,1-1.4.8,1.7,4.5,4.6,5.6,5.9,6.1,9.3,3.9,3.8-2.6,3.6-4.9-.8-10.3-3.3-4.1-3.1-4-4.4-2.8M126.9,45.7l-12.9,5.8h-3.2s-3.2,0-3.2,0v10.9h-2.5v20.1h7.4v-20.1h-2.8v-8.9h2.6s2.6,0,2.6,0l12.5,6.7c6.9,3.7,12.7,6.7,12.8,6.7.4,0,27.3-12.1,27.4-12.3,0-.2-27.2-14.9-27.5-14.9,0,0-6,2.6-13.1,5.8M223.3,41.4c-1.9.3-1.9.3-1.1,1.2.6.6.9.7,1.6.6.9-.1.9-.1.9.9s1,2.3,1.5,2c1.1-.7,0-5.2-1.2-5,0,0-.8.1-1.6.2M215.8,43.6c-4.2,2.8-5.3,7.4-2.5,10.6,5.3,6,15.4-2.4,10.6-8.8-1.8-2.4-5.8-3.2-8-1.8M220.9,46.2c1.8,1.3,1.8,3.4,0,5.5-1.9,2.2-3.7,2.5-5.3.9-2.9-2.9,2-8.7,5.4-6.4M52,49.9c-.4.2-1.9,1.5-3.4,3l-2.6,2.6,4.6,4.6,4.6,4.6,1.1-1.1,1.1-1.1-1.8-1.8-1.8-1.8,1.1-1q1.8-1.7,2.8-1.2c.5.3,1.1.8,1.5,1.2,1.2,1.3,1.5,1.3,2.7,0,1.2-1.2,1.3-1.5.7-1.5s-1.2-.6-2.1-1.4c-1.2-1.1-1.8-1.4-2.4-1.4-.8,0-.8,0-.8-1,0-2.5-2.9-4.1-5.3-3M224.8,55.5c-5.1,4.6-4.9,4.3-3.7,5.6l.8.9,3.1-2.8c1.7-1.5,3.1-2.8,3.2-2.7s-.6,1.9-1.3,4.2c-1.7,5.2-1.7,4.8-.6,6.1l.9,1.1,4.8-4.4,4.8-4.4-.6-.8c-1.1-1.4-1.2-1.4-3.4.5-1.1,1-2.4,2.2-3,2.7l-1.1.9,1.5-4.6,1.5-4.6-.9-1c-1.2-1.3-.9-1.5-6,3.2M54.5,53c.7.6.5,1.4-1,2.9l-1.4,1.5-1-1c-.5-.5-1-1.1-1-1.2,0-.4,1.7-2,2.7-2.5.8-.4,1-.4,1.7.3M115.6,65.5v9.9h9.2s9.2,0,9.2,0l-2.2.5c-4,.8-10.1,3.2-10.3,4,0,.3,4.3,2.3,6.3,2.9,1.1.3,1.1.3,1.5-.3,6-9.2,15.4-9.6,20.8-.9.5.8,1.1,1.4,1.3,1.4,1,0,7.1-2.4,7.4-3,.4-.6-6.5-3.3-10.6-4.1l-2.3-.5h9.2s9.2,0,9.2,0v-8.8c0-4.8,0-8.8-.2-8.8-.1,0-5.6,2.4-12.1,5.3l-12,5.3-12.1-6.5c-6.6-3.6-12.1-6.5-12.2-6.5s-.1,4.5-.1,9.9M41.2,61.5c-1.6,2-3,3.8-3.3,4.1-.4.4-.3.5.4,1.2,1,.9,1.3.9,2,0,.3-.5.8-1.1,1.1-1.4l.5-.6,3.6,2.9c2,1.6,3.8,3,4.1,3.3.4.4.5.3,1.3-.6,1.2-1.4,1.3-1.2-3.2-4.7l-4-3.2,1.2-1.5,1.2-1.5-.9-.7c-1.2-1-.9-1.2-4.1,2.9M235.2,64.6c-5.5,2.6-6.2,10.2-1.1,11.6,1,.3,1,.3.6.8-.4.5.2,2,.9,2s5.6-3.8,5.6-4.1-.7-1.2-1.5-2.4l-1.5-2.2-.9.7c-.5.4-1,.7-1,.8,0,0,.3.6.7,1.1,1,1.4,1,1.5-.3,1.5-4.4,0-4.1-5.3.4-7.2,2.8-1.2,6,1.6,4.4,3.9-.4.6.7,2.7,1.5,2.7,1.1,0,1.9-3,1.3-5-1.1-3.9-5.3-5.8-8.9-4.1M33.5,74.9c-4.6,1.2-6.1,7.5-2.6,10.9,4.6,4.4,12.2,1.8,11.3-3.8-.1-.9-.1-1,.6-.8.6.1.8,0,1.1-.8l.4-.9-2.8-1.6c-3.8-2.1-3.5-2.2-4.9.4-1.3,2.4-1.3,2.6-.2,3.2.9.5,1.1.4,1.8-.9.6-1.2.6-1.2,1.3-.2,2.3,3.7-3.1,6.1-6.6,2.9-2.3-2.1-1.3-5.7,1.7-5.7s2.1-2.1,1.7-2.6c-.3-.3-1.9-.5-2.7-.3M136.8,77.8c-2.2.9-6,4.6-6,5.7s5.2,1.2,7.3,1.3h1.1s0-3.8,0-3.8c0-4.4.1-4.2-2.4-3.2M140.9,81v3.8h1.2c3.6-.5,6.9-1.1,6.9-1.3,0-1.6-4.7-5.6-7.3-6.2l-.8-.2v3.8M117.6,82.3c-4,3.2-6.2,7.2-6.8,12l-.2,1.5h15.2l.2-2c.2-2.6.8-5.7,1.5-7.4.6-1.6.6-1.5-1.6-2.3-.9-.3-2.8-1.1-4.1-1.8-2.9-1.5-2.3-1.5-4.2,0M160,81.4c-1,.7-4,2.1-6,2.8l-2.1.7.6,1.8c.8,2.2,1.4,5.6,1.4,7.6v1.5h15.2v-1.2c0-3.9-2.4-8.4-6.3-11.8-1.8-1.6-2.1-1.8-2.8-1.3M246.5,81.6c-5.6,1.5-7.6,7-3.9,10.7,1.4,1.4,5.7,2.2,5.7,1.1s-1.2-2.5-1.7-2.4c-3.4.9-4.1-3.8-.8-5.8,3.5-2.1,7.5.2,5.4,3.2l-.6.9.6,1.2c.7,1.3.7,1.4,1.6.8,1.6-1.1,2.1-4.3.9-6.7-1.4-2.8-4-3.9-7.2-3M129.5,86.5c-.8,2.3-1.2,4.4-1.4,6.8l-.2,2.4h11.2v-9.1h-2.3c-2-.3-5.1-.8-6.5-1.2-.3,0-.5.2-.8,1.1M147.9,85.7c-.8.2-2.7.5-4.2.6l-2.7.3v9.1h11.2l-.2-2.1c-.3-3.8-1.5-8.1-2.2-8.2-.2,0-1,.1-1.9.3M24.9,88.2c-.2.6-.4,1.2-.4,1.2s1.7.9,3.8,1.8l3.8,1.6-2.4.3c-1.3.2-3.5.4-4.8.6l-2.5.3-.6,1.4c-.3.8-.5,1.4-.5,1.5,0,0,2.3,1,5,2.1,2.7,1.1,5.4,2.2,5.9,2.4l1,.4.5-1.1c.3-.6.5-1.2.5-1.3,0-.1-1.8-1-4-1.9l-4-1.6,5-.6,5-.6.5-1.3c.7-1.6,1.1-1.2-5.5-4-6.5-2.7-6-2.6-6.5-1.2M250.8,95.2c-6.7,2.4-6,1.9-5.5,3.5.5,1.5.2,1.5,3.3.4,1.4-.5,2.5-.8,2.5-.8s.4,1,.8,2.1l.7,2.1-.8.3c-.4.2-1.6.6-2.6.9-1,.3-1.8.6-1.9.7-.3.3.9,2.9,1.2,2.8.2,0,2.9-1,6.1-2.1,6.6-2.3,6-1.9,5.5-3.4-.5-1.6-.5-1.6-2.9-.7-1.1.4-2.1.7-2.2.7s-.4-1-.8-2.2l-.8-2.1.6-.2c.3-.1,1.3-.5,2.2-.8.9-.3,1.7-.6,1.7-.6.3-.2-.9-2.7-1.2-2.7-.2,0-3,.9-6.1,2M111.1,98.2c.9,3.9,4,8.5,7.5,10.8l1,.7,2.6-1.3c1.4-.7,3.4-1.5,4.3-1.9,1.3-.5,1.7-.7,1.6-1-.6-1.4-1.4-4.5-1.7-6.2l-.3-2h-15.1l.2.7M128.1,98.1c0,.3.2,1.1.3,1.8.2,1.5,1.3,5.1,1.6,5.3.1,0,1.4,0,2.7-.4,1.4-.3,3.4-.6,4.5-.7l2-.2v-6.5h-11.2v.6M140.9,100.9v3.4h.8c.5,0,2.1.2,3.6.5,1.5.3,3.2.6,3.7.7h.9c0,.1.6-1.5.6-1.5.6-1.8,1.3-4.8,1.3-5.9v-.7s-5.5,0-5.5,0h-5.5v3.4M153.8,98.5c-.4,2.5-1,4.9-1.5,6.3-.3.8-.6,1.5-.5,1.6s.7.2,1.4.5c.8.2,2.7,1,4.4,1.7l3,1.3,1.8-1.5c3.2-2.6,6-6.8,6.4-9.7l.2-1.1h-15l-.2,1M17.9,100.6c-.3,1.2-.2,1.4.8,1.6.5.1.7,0,.7-.2,0-.5.3-.5.7,0,.2.3.2.5-.4,1.1-3.1,3.3-2.1,8.5,2,10.2,5.4,2.3,10-.4,9.8-5.9-.2-3.8-2.8-5.9-7.6-5.9-1.4,0-2.5,0-2.5-.2,0-.4-1.1-1.2-1.7-1.3-.4,0-.9-.2-1.1-.3-.3-.1-.5,0-.7.9M16.2,104c-1.6.4-1.4.2-1.9,1.8q-.5,1.6,1.6.6c1.7-.9,2.1-1.3,2.1-2.4,0-.4,0-.4-1.7,0M26.3,104.8c4.6,1.6,3.1,7.1-1.7,6.2-2.2-.4-3.8-1.6-3.9-3-.3-3.1,2.1-4.5,5.7-3.3M133.5,106.5c-2.6.5-2.6.6-1.7,1.9,1.7,2.4,4.3,4.3,6.4,4.7l1,.2v-7.2h-1.8c-1,0-2.8.2-3.9.4M140.9,109.7c0,4.2,0,4.1,2.5,2.9,2.5-1.2,5.9-4.7,5.1-5.2-.4-.2-3.9-.9-6.1-1.2l-1.5-.2v3.6M257,107.8c-6.6,1.5-7.3,2.1-7.2,5.7.2,5.3,2.2,6.3,9.6,4.6,5.1-1.1,4.7-.9,4.4-2.7l-.3-1.4-1.4.3c-7.9,1.9-8.6,1.9-9.3.6-1.2-2.4-.4-3.1,5.2-4.4,2.4-.5,4.4-1,4.4-1,0,0-.5-2.7-.7-2.8,0,0-2.2.4-4.7.9M126.2,108.7c-5.4,2.2-5.4,2.2-1.5,3.8,4,1.7,9.3,2.8,12.5,2.8h1.3s-1.5-.5-1.5-.5c-2.7-.9-5.9-3.5-7.4-6.1-.7-1.2-.5-1.2-3.5,0M150.2,108.9c-1.2,2.3-4.5,5-7.3,6l-1.3.5h2.3c3.9-.3,8.5-1.5,12.4-3.3,2.7-1.2,2.7-1.2-1.7-2.8-3.8-1.4-3.8-1.4-4.4-.3M14.5,113.3c-.3.8-.3,2,0,2,.1,0,.5,0,.8.2.4.1.6,0,.6-.3s.2-.4.4-.4.3,0,.1.3c-.1.2-.3.9-.3,1.6v1.3c0,0,4.3.7,4.3.7,5.4.9,6.3,1.3,5.7,3.4-.5,1.9-2.9,2-10.3.5-.6-.1-1.6,2.4-1.1,2.9.2.2,8.5,1.3,9.6,1.3,2.6,0,4.2-1.9,4.4-5.3.2-3.7-1.1-4.7-6.9-5.6-2.9-.5-3.7-.7-3.8-1-.4-1.2-3.2-2.4-3.5-1.5M77.8,120.6c1.2,9.8,21.4,30.6,32.3,33.2,1,.2,1.9.5,2.2.6.3.1-.2.7-2.3,2.2-16.5,12.3-24.3,31.2-25.1,60.9l-.2,5.8h19.8l.2-3.4c1.4-29.3,11.5-52.5,23.7-54.1l1.1-.2v57.7h20.8v-57.7l1.3.2c12.2,1.6,22,24.2,23.7,54.5l.2,3h19.7v-1.3c0-31.3-8.1-52.2-25-65.1-2.8-2.1-3.2-2.6-2-2.6,9.3,0,32.4-22.8,34-33.6l.2-1.2h-124.7v1.3M261.5,121.5c-4.6,3.3-4.4,3.2-6.9,3.5l-2.3.3v1.4c.2,1.7,0,1.6,2.7,1.3l2.4-.3,3.9,1.6c2.2.9,4.1,1.6,4.2,1.7.4.1.4-.7.2-2.3-.2-.9-.2-.9-2.6-1.7-1.3-.4-2.5-.9-2.6-1-.1,0,.9-.8,2.2-1.7l2.4-1.5v-1c-.5-2.7-.2-2.7-3.5-.2M16.2,129.5c-1.6.7-2,1.8-2.2,6.4l-.2,3.7,2.5.2c8.1.5,10.5.5,10.5,0,0-.3,0-.9.2-1.4l.2-.9-2.6-.2-2.6-.2v-1.8c.3-2.2.7-2.6,2.4-2.6.7,0,1.7,0,2.1,0h.8v-1.7c0-1.3,0-1.7-.4-1.7s-.4.1-.4.3-.9.3-2.1.3-2.2,0-2.7.5c-.6.5-.6.5-1.2,0-.6-.5-2.3-1.2-2.9-1.2-.1,0-.7.2-1.3.5M19.2,132.5c.4.3.5.8.5,2.5v2.1h-1.6c-1.9-.3-1.8,0-1.5-2.4.2-2.5,1.4-3.4,2.7-2.2M130.8,139.8v6h-1.1c-6,0-16.2-5.1-21.7-10.8l-1.1-1.2h24v6M172.9,134c0,.4-4.6,4.4-7.1,6-4.3,2.8-10.7,5.3-14.5,5.6l-2,.2v-12h11.8c7.2,0,11.8,0,11.8.2M253.8,134c-.7,0-.9.2-.8.5,0,.2.1,2.4.1,4.9v4.5h2.5v-7.1h3v6.1h2.5v-6.3h2.3v2.9c0,3.9,0,4,1.4,4h1.1v-9.6h-5.6c-3.1,0-6.1.1-6.6.2M267.3,137c0,.9.1,1.2.7,1.6l.7.4-.6.5c-.6.5-1.2,2.7-.8,2.7s.8-.4,1.5-.9c1.9-1.3,2-2.9.3-4.4-1.4-1.3-1.7-1.3-1.7.1M14,142.6c-.1.2.3,8.9.5,9.9,0,.5.3.6,1.3.6h1.1v-1.9c0-2.3-.3-2.1,4.3-2.3,1.9,0,4-.2,4.8-.3l1.4-.2-.2-1.3c-.2-1.7.2-1.6-5.4-1.2-2.7.2-5,.3-5.1.2,0,0-.2-.9-.3-1.9l-.2-1.8h-1.1c-.6,0-1.1,0-1.2.2M252.8,147.9c0,.6,0,1.2,0,1.3,0,.1,1.7.4,3.8.6,2.1.2,4,.5,4.2.5.2,0-1.6.9-4,2-5.2,2.2-4.7,1.9-4.8,3.6v1.4c0,0,6.3.7,6.3.7,3.5.4,6.4.6,6.4.6,0,0,.2-.7.2-1.3.1-1.5.4-1.3-4.7-1.9-1.7-.2-3.1-.4-3.1-.5s1.9-.9,4.1-1.9c2.3-1,4.2-1.8,4.2-1.8.1,0,.5-2.9.4-3,0,0-11.9-1.3-12.5-1.3s-.6.1-.6,1.1M30.9,185.6c-5.9,2.9-3.8,11.8,2.7,11.8,3.8,0,6.2-2.3,6.2-6.1,0-4.7-4.8-7.7-8.9-5.7M244.7,185.5c-5.8,2.5-4.4,11.3,1.9,12,7.1.7,9.6-9.3,3-12-1.1-.5-3.8-.4-4.9,0M59.9,215c-1.2,1.3-1.2,1.2.7,2.9l1.6,1.4-2.9,3c-1.6,1.7-3.5,3.8-4.3,4.7l-1.5,1.7,1.1,1.1c1.5,1.5,1.1,1.7,5.8-3.3,4.8-5.1,4.3-4.9,6.1-3,1.6,1.6,1.8,1.6,2.9.2l.7-.9-3.3-3.1c-1.8-1.7-3.9-3.7-4.7-4.4l-1.4-1.3-.9,1M213.3,219.4l-1.3,1.4,3.2,7.6c1.8,4.2,3.3,7.6,3.3,7.7.1.2,2.6-2.3,2.6-2.6,0-.1-.3-.9-.6-1.6l-.6-1.3,2-1.8,2-1.8,1.4.8,1.4.8,1.3-1.2c.7-.6,1.3-1.2,1.3-1.3,0-.2-14.3-7.9-14.7-7.9s-.8.6-1.5,1.4M205.7,220.2c-.3.2-.6.7-.7,1.1-.1.6-.4.8-1.7,1.3-2.1.8-2.9,2.4-2,4.1.4.7,1.5,0,1.5-.9s.3-.9,1.9-1.5c1.7-.6,2.3-1.5,2.1-2.9-.2-1.4-.4-1.7-1.1-1.2M218.9,224l2.2,1.3-1.2,1.1c-1.5,1.3-1.5,1.3-2,.1-.2-.5-.7-1.6-1.1-2.4-.4-.8-.6-1.4-.5-1.4s1.2.7,2.4,1.4M66.9,230.3c-5.4,7.4-4.9,6.3-3.3,7.5,1.6,1.2,1.5,1.3,3.3-1.4,1.9-2.7,1.7-2.6,3.5-1.2,2.4,1.7,2.5,2.3,1.3,4-.8,1.1-1.9,3.1-1.8,3.2,2.7,2,3.8,2.5,3.4,1.5,0-.2.3-1,.9-1.9,1.5-2.2,1.8-3.2,1.6-4.2-.2-.8-.2-.8.7-.8,2.8,0,4.6-3.5,3.3-6.3-.5-.9-5.3-4.9-8-6.5-.2-.1-1.9,2.1-4.9,6.2M205.5,226c-.7.6-1.2,1.1-1.2,1.3,0,.2,7.2,9.7,9.3,12.4.3.4,2.9-2.2,2.6-2.5-1.1-1.5-9.2-12.1-9.3-12.1,0,0-.7.5-1.4,1M74.5,229.8c2.5,1.9,2.7,2.5,1.5,3.8-.9,1-1.4.8-4-1l-1.6-1.1,1.1-1.5c1.3-1.8.9-1.8,3.1-.2M91.7,229.2c0,1.2,1.7,4.2,2.6,4.6,1.3.6,1.3.6.9-1.6l-.3-1.9-1.5-.7c-1.7-.7-1.7-.7-1.7-.5M200.3,229.8c-.6.4-1.2.8-1.2.9s.5,1.1,1.3,2.4,1.4,2.4,1.4,2.5c0,.2-4.6,3.2-4.7,3.1,0,0-.7-1.1-1.4-2.3-.7-1.2-1.5-2.3-1.6-2.4-.4-.2-3,1.5-2.9,1.9.3.8,7.9,12.8,8.1,12.9.5.2,3-1.4,2.8-1.8-.1-.3-2-3.4-3.1-5.1-.3-.5-.2-.6,1.9-2,2.8-1.8,2.4-1.9,4.4,1.4.9,1.5,1.8,2.8,1.9,2.8.4,0,2.9-1.7,2.8-1.9-.2-.9-8-13-8.3-13-.2,0-.9.3-1.5.7M87.3,231.7c-2,1.1-2,1.1-.5,1.7,1.1.5,1.2.5,2,0,1.1-.5,1-.6,1.3.6.2.7.5,1.1,1.2,1.4,1.6.8,1.6.7,1.1-1.6l-.5-2-1.2-.5c-1.5-.7-1.3-.7-3.3.4M81.5,240.3c-3.3,3-6,5.6-6,5.6,0,0,.7.5,1.6,1l1.6.8,1.2-1.2,1.2-1.2,2.4,1.3c2.6,1.4,2.5,1.3,2.1,3.5l-.2,1.1,1.6.9c1.6.9,1.6.9,1.8.3.2-.7,2.5-16,2.4-16.1-.2-.2-3.3-1.6-3.4-1.6s-2.9,2.5-6.2,5.5M182.9,238.9c-6.9,2.4-7,12.5-.2,15.7,2.9,1.4,8.7-.4,8.8-2.6,0-.7.5-.9,1-.3.4.6.5.6,1.4.3,1.3-.5,1.3-.5-.1-3.9-.7-1.7-1.5-3.4-1.6-3.8l-.3-.8-3,1.3c-1.7.7-3,1.3-3.1,1.4-.1.1.7,2.4,1,2.5.1,0,.9-.2,1.7-.5.8-.4,1.5-.6,1.5-.6.4,0,0,2.1-.5,2.8-2.2,3.3-6.5,1.9-7.8-2.6-1.3-4.2,2-7.6,5.2-5.4l1,.7,1.4-.6c1.8-.8,1.8-1,.6-2.2-1.6-1.6-4.2-2-6.9-1.1M87,242c-.5,2.9-.6,2.9-1.8,2.3-1.9-1-1.9-.9.1-2.9,2.3-2.3,2.2-2.3,1.6.7M96.4,243.6c-.7,2.1-1.9,5.4-2.6,7.4l-1.3,3.6.9.4c.5.2,1.2.4,1.6.5h.7c0,.1,1.7-4.8,1.7-4.8l1.7-5,.7,3.6c.4,2,.9,4.7,1.1,6l.4,2.4,1.5.6c1.9.7,1.5,1.4,4.3-6.8,2.9-8.2,2.8-7.5,1-8.1-1.7-.6-1.3-1.3-3.2,4.3-.9,2.6-1.7,4.7-1.7,4.7,0,0-.5-2.5-1.1-5.7l-1-5.7-1.1-.5c-2.4-1.1-2.2-1.2-3.7,3M171.5,243.5c-1.3.3-1.3,0,0,5.5.6,2.4,1.1,4.5,1,4.5,0,0-1.9-1.8-4.1-4l-4-4.1-1.7.4c-.9.2-1.7.5-1.8.5,0,0,3.7,14.9,3.9,15.1.1.1,2.9-.5,3-.7,0-.1-1.6-7.2-2.3-9.4-.1-.4,1.3.9,4.1,3.6l4.3,4.3,1.6-.4c1.9-.5,1.9.3-.3-8.4-2.1-7.9-1.8-7.4-3.9-6.9M118.2,247.1c-.2,1.2-.6,4.3-.6,4.7,0,.2-.2.3-.5.3-.5,0-.6.1-.9,2-.1.6,0,.8.2.8.6,0,.6.4.2,3.4-.5,3.8-.7,3.5,3.1,4.1,7,1,9.7-.6,10.8-6.3,1.1-5.9-.9-8.2-8-9.3-4.4-.6-4.2-.7-4.4.3M149.8,247.7c-.4,0-.7.1-.7.2s.3,3.4.8,7.5c.4,4.1.8,7.6.8,7.8,0,.3,3.1.3,3.5,0,0,0-.3-3.4-.7-7.5-.4-4.1-.8-7.6-.8-7.8,0-.3-1.3-.3-2.9-.1M138.3,248.3c-.7.2-.8.3-3.4,7.8-1.4,4.2-2.6,7.7-2.6,7.8,0,.1.8.2,1.8.1h1.8c0,0,.5-1.7.5-1.7l.5-1.6h2.8c0,0,2.8.1,2.8.1l.5,1.5.5,1.5h1.9c1.4,0,1.9,0,1.8-.3,0-.2-1.4-3.7-2.9-7.9l-2.7-7.6h-1.3c-.7,0-1.6.1-2,.2M124,250c2.9.4,3.9,2.9,2.6,7-.7,2.1-1.8,2.8-4.2,2.7-2.5-.2-2.3,0-2-2.1l.2-1.7h1.8c0,0,1.8.2,1.8.2l.2-1c.3-1.9.4-1.8-2.3-2.2l-1-.2.2-1.2c.1-.7.2-1.3.2-1.5,0-.2.2-.3.7-.2.4,0,1.2.2,1.9.3M140.6,255.3l.8,2.3h-1.8c-1.1.1-1.7,0-1.7,0,0-.1.4-1.3.8-2.6q.8-2.7,1.8.4M139.7,265h-1.1v1.3c0,1.5.2,1.6,1.8,1.4l1.3-.2v-1.4c0-1.2,0-1.4-.4-1.3-.2,0-.9,0-1.5.1"/>
  </g>
</svg>